<svg width="1440" height="866" viewBox="0 0 1440 866" fill="none" xmlns="http://www.w3.org/2000/svg">
<g opacity="0.08">
<path d="M1236.71 767.645C1236.71 767.645 1236.64 767.645 1236.57 767.716C1131.98 835.441 950.441 952.992 800.4 1050.1C795.749 1053.13 791.027 1056.02 786.235 1058.7C689.191 1114.31 568.749 1112.12 473.467 1051.8C379.806 992.598 280.436 929.735 179.939 866.238C179.939 866.238 179.869 866.238 179.798 866.168C134.624 837.626 89.3085 808.943 44.1341 780.401H44.0635C-2.30893 751.013 -48.5405 721.767 -94.0673 693.013C-130.785 669.827 -167.079 646.853 -202.669 624.372C-305.14 559.536 -305.915 410.413 -204.149 344.52C-71.6562 258.753 65.8404 169.745 202.985 81.0181C344.357 -10.5979 485.236 -101.791 619.843 -188.897C709.769 -247.108 825.278 -247.743 915.838 -190.518L1120.5 -61.0573C865.519 103.993 517.514 329.227 260.28 495.757C257.32 497.66 254.431 499.492 251.682 501.254C251.189 501.606 250.766 501.888 250.343 502.17L387.84 589.135L497.288 658.27C503.419 662.146 509.48 666.022 515.541 669.898L603.564 725.502L698.493 664.049L883.42 544.313L1236.64 767.645H1236.71Z" fill="url(#paint0_radial_685_738)"/>
<path d="M1662.85 491.823L1538.74 572.163L1185.52 348.832L1473.76 162.217L1661.79 281.106C1738.89 329.874 1739.52 442.209 1662.92 491.753L1662.85 491.823Z" fill="url(#paint1_radial_685_738)"/>
<path d="M1236.63 767.745C1132.05 835.47 950.503 953.02 800.461 1050.13C795.81 1053.16 791.089 1056.05 786.296 1058.73C689.252 1114.34 568.811 1112.15 473.529 1051.82C379.867 992.627 280.498 929.764 180.001 866.267C180.001 866.267 179.93 866.267 179.86 866.197C134.685 837.655 89.3699 808.972 44.1955 780.43H44.125C-2.2475 751.042 -48.4791 721.796 -94.0059 693.042L-35.6526 499.803L171.262 449.414C171.262 449.414 202.975 469.851 251.815 501.283C315.312 542.017 407.776 601.356 497.42 658.299C503.551 662.175 509.612 666.051 515.673 669.927C546.047 689.166 575.788 707.983 603.696 725.531C878.83 884.731 1228.53 770.423 1236.63 767.745Z" fill="url(#paint2_radial_685_738)"/>
<path d="M1120.58 -61.0475C865.599 104.002 517.594 329.237 260.361 495.767C256.907 497.951 253.595 500.136 250.424 502.18C45.7647 634.671 179.949 866.248 179.949 866.248C179.949 866.248 179.878 866.248 179.808 866.177C134.634 837.636 89.3183 808.953 44.1439 780.411H44.0733C-39.7213 727.344 -122.882 674.841 -202.659 624.382C-305.13 559.546 -305.905 410.423 -204.139 344.53C-71.6465 258.763 65.8502 169.755 202.994 81.0279C344.367 -10.5882 485.246 -101.781 619.853 -188.887C709.779 -247.098 825.287 -247.733 915.848 -190.508L1120.51 -61.0475H1120.58Z" fill="url(#paint3_radial_685_738)"/>
</g>
<defs>
<radialGradient id="paint0_radial_685_738" cx="0" cy="0" r="1" gradientUnits="userSpaceOnUse" gradientTransform="translate(1206.27 333.949) scale(937.316 937.303)">
<stop stop-color="#048DAE"/>
<stop offset="0.6" stop-color="#175C9B"/>
<stop offset="1" stop-color="#234090"/>
</radialGradient>
<radialGradient id="paint1_radial_685_738" cx="0" cy="0" r="1" gradientUnits="userSpaceOnUse" gradientTransform="translate(1206.24 333.962) scale(937.316 937.303)">
<stop stop-color="#048DAE"/>
<stop offset="0.46" stop-color="#1F71AA"/>
<stop offset="1" stop-color="#3C56A6"/>
</radialGradient>
<radialGradient id="paint2_radial_685_738" cx="0" cy="0" r="1" gradientUnits="userSpaceOnUse" gradientTransform="translate(1033.59 888.184) scale(1122.24 1122.23)">
<stop stop-color="#048DAE"/>
<stop offset="0.46" stop-color="#1F71AA"/>
<stop offset="1" stop-color="#3C56A6"/>
</radialGradient>
<radialGradient id="paint3_radial_685_738" cx="0" cy="0" r="1" gradientUnits="userSpaceOnUse" gradientTransform="translate(4.32546 636.292) scale(1628.75 1628.72)">
<stop stop-color="#048DAE"/>
<stop offset="0.46" stop-color="#1F71AA"/>
<stop offset="1" stop-color="#3C56A6"/>
</radialGradient>
</defs>
</svg>
