<svg width="144" height="132" viewBox="0 0 144 132" fill="none" xmlns="http://www.w3.org/2000/svg">
<path d="M96.8305 48.0861C96.8305 48.0861 96.8271 48.0861 96.8237 48.0895C91.7979 51.344 83.0738 56.9929 75.8635 61.6597C75.64 61.8053 75.4131 61.9442 75.1828 62.0729C70.5194 64.7449 64.7315 64.6399 60.1527 61.741C55.6519 58.8962 50.8766 55.8753 46.0472 52.824C46.0472 52.824 46.0439 52.824 46.0405 52.8206C43.8696 51.449 41.692 50.0707 39.5211 48.6991H39.5177C37.2893 47.2868 35.0676 45.8814 32.8798 44.4996C31.1154 43.3854 29.3712 42.2814 27.661 41.2011C22.7367 38.0854 22.6995 30.9193 27.5898 27.7528C33.9568 23.6312 40.5642 19.3539 47.1547 15.0902C53.9484 10.6875 60.7183 6.30525 67.1869 2.11938C71.5083 -0.677973 77.059 -0.708454 81.4109 2.04149L91.2458 8.26272C78.9928 16.1942 62.2694 27.0179 49.908 35.0205C49.7658 35.1119 49.627 35.2 49.4949 35.2846C49.4712 35.3016 49.4508 35.3151 49.4305 35.3287L56.0379 39.5078L61.2974 42.83C61.5921 43.0163 61.8833 43.2026 62.1746 43.3888L66.4046 46.0609L70.9664 43.1077L79.8531 37.3539L96.8271 48.0861H96.8305Z" fill="url(#paint0_radial_685_759)"/>
<path d="M117.309 34.8314L111.345 38.6922L94.3706 27.96L108.222 18.9922L117.258 24.7054C120.963 27.049 120.993 32.4473 117.312 34.8281L117.309 34.8314Z" fill="url(#paint1_radial_685_759)"/>
<path d="M96.8267 48.0909C91.8008 51.3454 83.0768 56.9943 75.8665 61.6611C75.643 61.8067 75.4161 61.9456 75.1858 62.0742C70.5224 64.7463 64.7345 64.6413 60.1557 61.7424C55.6548 58.8976 50.8796 55.8767 46.0502 52.8254C46.0502 52.8254 46.0468 52.8254 46.0434 52.822C43.8726 51.4504 41.695 50.072 39.5241 48.7005H39.5207C37.2923 47.2882 35.0706 45.8828 32.8828 44.501L35.687 35.2149L45.6303 32.7935C45.6303 32.7935 47.1543 33.7756 49.5012 35.286C52.5526 37.2435 56.996 40.095 61.3038 42.8314C61.5985 43.0177 61.8897 43.2039 62.181 43.3902C63.6406 44.3148 65.0698 45.219 66.4109 46.0623C79.6325 53.7127 96.4372 48.2195 96.8267 48.0909Z" fill="url(#paint2_radial_685_759)"/>
<path d="M91.2497 8.26321C78.9967 16.1947 62.2733 27.0184 49.9119 35.021C49.746 35.126 49.5868 35.2309 49.4344 35.3292C39.5995 41.696 46.0477 52.8245 46.0477 52.8245C46.0477 52.8245 46.0443 52.8245 46.041 52.8211C43.8701 51.4495 41.6925 50.0711 39.5216 48.6996H39.5182C35.4915 46.1494 31.4952 43.6264 27.6615 41.2016C22.7372 38.0859 22.7 30.9198 27.5903 27.7533C33.9573 23.6317 40.5647 19.3544 47.1552 15.0907C53.9489 10.688 60.7188 6.30574 67.1874 2.11987C71.5088 -0.677485 77.0595 -0.707966 81.4114 2.04198L91.2463 8.26321H91.2497Z" fill="url(#paint3_radial_685_759)"/>
<path d="M12.7761 120.713V122.652H9.54085V131.801H7.58755V122.652H4.35229V120.713H12.7797H12.7761Z" fill="white"/>
<path d="M23.4518 120.713V122.652H17.899C16.7313 122.652 16.2242 123.195 16.2242 124.049C16.2242 124.952 16.7991 125.363 17.9168 125.363H23.3696V127.12H17.8668C16.7491 127.12 16.1742 127.562 16.1742 128.466C16.1742 129.369 16.717 129.862 17.849 129.862H23.4661V131.801H17.849C15.2208 131.801 14.1531 130.505 14.1531 128.78C14.1531 127.516 14.728 126.663 15.7457 126.234C14.7101 125.806 14.1852 124.952 14.1852 123.738C14.1852 121.963 15.2851 120.717 17.899 120.717H23.4518V120.713Z" fill="white"/>
<path d="M34.8697 120.713V122.652H30.5811C28.4456 122.652 27.5101 123.72 27.5101 126.266C27.5101 128.812 28.4314 129.866 30.5811 129.866H34.8697V131.805H30.5811C27.3458 131.805 25.571 129.98 25.571 126.27C25.571 122.56 27.3601 120.717 30.5811 120.717H34.8697V120.713Z" fill="white"/>
<path d="M39.1233 120.713V125.231H44.7904V120.713H46.7437V131.801H44.7904V127.17H39.1233V131.801H37.1843V120.713H39.1233Z" fill="white"/>
<path d="M51.3421 131.801H49.4031V122.931C49.4031 121.485 50.2244 120.517 51.9491 120.517C53.4918 120.517 54.1845 121.306 54.6416 122.57L57.8769 129.652C58.009 129.916 58.2233 130.112 58.5839 130.112C58.9946 130.112 59.241 129.866 59.241 129.487V120.713H61.1943V129.569C61.1943 131.03 60.3551 132.001 58.6482 132.001C57.1056 132.001 56.3985 131.212 55.9379 129.948L52.7026 122.867C52.5562 122.538 52.3562 122.392 52.0134 122.392C51.5706 122.392 51.3385 122.638 51.3385 123.031V131.805L51.3421 131.801Z" fill="white"/>
<path d="M69.9705 120.713C73.1914 120.713 74.9805 122.552 74.9805 126.284C74.9805 130.016 73.2057 131.805 69.9705 131.805H68.46C65.2247 131.805 63.45 129.998 63.45 126.284C63.45 122.57 65.239 120.713 68.46 120.713H69.9705ZM68.4564 122.652C66.321 122.652 65.3854 123.738 65.3854 126.284C65.3854 128.83 66.3067 129.866 68.4564 129.866H69.9669C72.1023 129.866 73.0236 128.816 73.0236 126.266C73.0236 123.717 72.1023 122.652 69.9669 122.652H68.4564Z" fill="white"/>
<path d="M79.0878 120.713V127.959C79.0878 129.027 79.6128 129.866 81.3554 129.866H85.6584V131.805H81.2376C78.2951 131.805 77.1453 130.194 77.1453 127.977V120.717H79.0843L79.0878 120.713Z" fill="white"/>
<path d="M93.2634 120.713C96.4844 120.713 98.2735 122.552 98.2735 126.284C98.2735 130.016 96.4987 131.805 93.2634 131.805H91.7529C88.5177 131.805 86.7429 129.998 86.7429 126.284C86.7429 122.57 88.532 120.713 91.7529 120.713H93.2634ZM91.7494 122.652C89.614 122.652 88.6784 123.738 88.6784 126.284C88.6784 128.83 89.5997 129.866 91.7494 129.866H93.2599C95.3953 129.866 96.3166 128.816 96.3166 126.266C96.3166 123.717 95.3953 122.652 93.2599 122.652H91.7494Z" fill="white"/>
<path d="M109.722 120.713V122.652H105.155C103.02 122.652 102.084 123.72 102.084 126.266C102.084 128.812 103.005 129.866 105.155 129.866H106.994C108.08 129.866 108.537 129.209 108.537 128.305C108.537 127.402 108.076 126.891 107.173 126.891H104.709V125.198H107.369C109.34 125.198 110.308 126.413 110.308 128.337C110.308 130.262 109.34 131.805 106.858 131.805H105.151C101.916 131.805 100.141 129.98 100.141 126.27C100.141 122.56 101.93 120.717 105.151 120.717H109.719L109.722 120.713Z" fill="white"/>
<path d="M114.471 120.713V131.801H112.532V120.713H114.471Z" fill="white"/>
<path d="M126.003 120.713V122.652H120.45C119.282 122.652 118.775 123.195 118.775 124.049C118.775 124.952 119.35 125.363 120.468 125.363H125.92V127.12H120.418C119.3 127.12 118.725 127.562 118.725 128.466C118.725 129.369 119.268 129.862 120.4 129.862H126.017V131.801H120.4C117.772 131.801 116.704 130.505 116.704 128.78C116.704 127.516 117.279 126.663 118.296 126.234C117.261 125.806 116.736 124.952 116.736 123.738C116.736 121.963 117.836 120.717 120.45 120.717H126.003V120.713Z" fill="white"/>
<path d="M137.083 120.713V122.652H131.398C130.394 122.652 129.952 123.195 129.952 123.967C129.952 124.641 130.298 125.281 131.594 125.281H134.19C137.211 125.281 137.918 126.955 137.918 128.548C137.918 130.423 136.915 131.801 134.387 131.801H128.209V129.862H134.451C135.501 129.862 135.979 129.287 135.979 128.484C135.979 127.762 135.601 127.105 134.237 127.105H131.659C128.702 127.105 128.013 125.445 128.013 123.902C128.013 122.063 128.998 120.717 131.462 120.717H137.079L137.083 120.713Z" fill="white"/>
<path d="M18.9565 88.3931V92.2711H10.3756C6.10115 92.2711 4.22999 94.4065 4.22999 99.5022C4.22999 104.598 6.07258 106.701 10.3756 106.701H18.9565V110.579H10.3756C3.90146 110.579 0.348389 106.93 0.348389 99.5022C0.348389 92.0747 3.93003 88.3931 10.3756 88.3931H18.9565Z" fill="white"/>
<path d="M27.242 88.3931V102.891C27.242 105.026 28.2955 106.705 31.7771 106.705H40.3902V110.583H31.5486C25.6637 110.583 23.364 107.362 23.364 102.923V88.3931H27.242Z" fill="white"/>
<path d="M46.2439 110.583H41.9695L49.7613 90.8608C50.5826 88.7897 52.0966 88.0005 54.4285 88.0005C56.7603 88.0005 58.2422 88.7897 59.0314 90.8608L66.5268 110.583H62.2202L55.4819 92.732C55.2855 92.207 54.9248 91.9749 54.3963 91.9749C53.8678 91.9749 53.5072 92.2035 53.2786 92.732L46.2439 110.583Z" fill="white"/>
<path d="M73.6913 88.3931V97.4347H85.0325V88.3931H88.9463V110.583H85.0325V101.313H73.6913V110.583H69.8132V88.3931H73.6913Z" fill="white"/>
<path d="M96.5056 110.583H92.2312L100.023 90.8608C100.844 88.7897 102.358 88.0005 104.69 88.0005C107.022 88.0005 108.504 88.7897 109.293 90.8608L116.788 110.583H112.482L105.744 92.732C105.547 92.207 105.187 91.9749 104.658 91.9749C104.13 91.9749 103.769 92.2035 103.54 92.732L96.5056 110.583Z" fill="white"/>
<path d="M123.926 110.583H120.048V92.832C120.048 89.9395 121.69 88.0005 125.143 88.0005C128.232 88.0005 129.614 89.5788 130.535 92.1106L137.013 106.28C137.277 106.805 137.702 107.201 138.427 107.201C139.248 107.201 139.741 106.709 139.741 105.952V88.3969H143.651V106.116C143.651 109.04 141.977 110.979 138.556 110.979C135.467 110.979 134.053 109.401 133.131 106.869L126.657 92.6998C126.361 92.0428 125.968 91.7464 125.275 91.7464C124.386 91.7464 123.929 92.2392 123.929 93.0284V110.583H123.926Z" fill="white"/>
<defs>
<radialGradient id="paint0_radial_685_759" cx="0" cy="0" r="1" gradientUnits="userSpaceOnUse" gradientTransform="translate(95.3674 27.2448) scale(45.0428 45.0422)">
<stop stop-color="#048DAE"/>
<stop offset="0.6" stop-color="#175C9B"/>
<stop offset="1" stop-color="#234090"/>
</radialGradient>
<radialGradient id="paint1_radial_685_759" cx="0" cy="0" r="1" gradientUnits="userSpaceOnUse" gradientTransform="translate(95.3663 27.2454) scale(45.0428 45.0422)">
<stop stop-color="#048DAE"/>
<stop offset="0.46" stop-color="#1F71AA"/>
<stop offset="1" stop-color="#3C56A6"/>
</radialGradient>
<radialGradient id="paint2_radial_685_759" cx="0" cy="0" r="1" gradientUnits="userSpaceOnUse" gradientTransform="translate(87.0697 53.8786) scale(53.9295 53.9287)">
<stop stop-color="#048DAE"/>
<stop offset="0.46" stop-color="#1F71AA"/>
<stop offset="1" stop-color="#3C56A6"/>
</radialGradient>
<radialGradient id="paint3_radial_685_759" cx="0" cy="0" r="1" gradientUnits="userSpaceOnUse" gradientTransform="translate(37.6081 41.7739) scale(78.2695 78.2684)">
<stop stop-color="#048DAE"/>
<stop offset="0.46" stop-color="#1F71AA"/>
<stop offset="1" stop-color="#3C56A6"/>
</radialGradient>
</defs>
</svg>
