<svg width="64" height="64" viewBox="0 0 64 64" fill="none" xmlns="http://www.w3.org/2000/svg">
<rect x="0.5" y="0.5" width="63" height="63" rx="15.5" fill="#EDACFD" fill-opacity="0.05"/>
<rect x="0.5" y="0.5" width="63" height="63" rx="15.5" stroke="#EDACFD"/>
<path d="M31.7333 45.7969C20.1333 45.7969 20 34.2369 20 34.1169V23.3302C20.007 23.1471 20.0641 22.9694 20.1653 22.8166C20.2664 22.6637 20.4075 22.5416 20.5733 22.4635L31.3067 17.4235C31.441 17.364 31.5864 17.3333 31.7333 17.3333C31.8803 17.3333 32.0256 17.364 32.16 17.4235L42.8933 22.4635C43.0652 22.5446 43.2103 22.6729 43.3119 22.8335C43.4134 22.9941 43.4671 23.1802 43.4667 23.3702V34.1569C43.4667 34.2369 43.3333 45.7969 31.7333 45.7969ZM22 23.9702V34.1169C22 34.4635 22.1467 43.7969 31.7333 43.7969C41.32 43.7969 41.4667 34.4635 41.4667 34.1169V23.9702L31.7333 19.3969L22 23.9702Z" fill="#EDACFD"/>
<path d="M21.0667 32.797C20.8413 32.7979 20.6222 32.7226 20.445 32.5833C20.2677 32.4441 20.1427 32.249 20.0902 32.0298C20.0377 31.8106 20.0609 31.5801 20.1558 31.3757C20.2508 31.1713 20.412 31.0049 20.6134 30.9036L31.3467 25.4903C31.4892 25.4177 31.6468 25.3799 31.8067 25.3799C31.9666 25.3799 32.1242 25.4177 32.2667 25.4903L42.6 30.917C42.7279 30.9709 42.8432 31.0508 42.9385 31.1517C43.0338 31.2526 43.107 31.3722 43.1536 31.503C43.2001 31.6337 43.2189 31.7727 43.2089 31.9111C43.1988 32.0495 43.16 32.1843 43.095 32.3069C43.0299 32.4295 42.9401 32.5372 42.8312 32.6232C42.7223 32.7092 42.5967 32.7716 42.4623 32.8064C42.328 32.8413 42.1879 32.8477 42.0509 32.8254C41.9139 32.8031 41.7831 32.7526 41.6667 32.677L31.7334 27.5036L21.4667 32.6903C21.3415 32.7513 21.2057 32.7875 21.0667 32.797V32.797Z" fill="#EDACFD"/>
</svg>
