<svg width="218" height="44" viewBox="0 0 218 44" fill="none" xmlns="http://www.w3.org/2000/svg">
<path d="M50.1087 33.0596C50.1087 33.0596 50.1064 33.0596 50.1041 33.0619C46.6488 35.2994 40.651 39.1831 35.694 42.3915C35.5403 42.4916 35.3844 42.5871 35.226 42.6756C32.0199 44.5126 28.0408 44.4405 24.8929 42.4474C21.7985 40.4916 18.5156 38.4147 15.1954 36.3169C15.1954 36.3169 15.193 36.3169 15.1907 36.3146C13.6983 35.3716 12.2011 34.424 10.7087 33.481H10.7063C9.1743 32.5101 7.64691 31.5438 6.1428 30.5939C4.92974 29.8278 3.73065 29.0688 2.55484 28.3261C-0.830557 26.184 -0.856167 21.2572 2.50595 19.0802C6.88322 16.2467 11.4258 13.306 15.9567 10.3746C20.6274 7.34777 25.2817 4.33491 29.7288 1.45709C32.6998 -0.466115 36.5159 -0.487065 39.5078 1.40354L46.2693 5.68069C37.8454 11.1336 26.3481 18.575 17.8497 24.0769C17.7519 24.1397 17.6564 24.2003 17.5656 24.2585C17.5493 24.2701 17.5353 24.2794 17.5214 24.2887L22.064 27.1619L25.6799 29.446C25.8824 29.5741 26.0827 29.7021 26.2829 29.8302L29.191 31.6672L32.3273 29.6369L38.4368 25.6811L50.1064 33.0596H50.1087Z" fill="white"/>
<path d="M64.1878 23.9464L60.0876 26.6007L48.418 19.2222L57.9409 13.0568L64.1529 16.9847C66.7001 18.5959 66.721 22.3072 64.1901 23.9441L64.1878 23.9464Z" fill="white"/>
<path d="M86.5073 32.7128V34.6517H83.2722V43.8002H81.3189V34.6517H78.0837V32.7128H86.5109H86.5073Z" fill="white"/>
<path d="M97.183 32.7128V34.6517H91.6303C90.4627 34.6517 89.9556 35.1945 89.9556 36.0479C89.9556 36.9513 90.5305 37.362 91.6482 37.362H97.1009V39.1188H91.5982C90.4805 39.1188 89.9056 39.5616 89.9056 40.465C89.9056 41.3685 90.4484 41.8612 91.5803 41.8612H97.1973V43.8002H91.5803C88.9522 43.8002 87.8845 42.504 87.8845 40.7793C87.8845 39.5152 88.4594 38.6618 89.4771 38.2333C88.4416 37.8048 87.9167 36.9513 87.9167 35.7373C87.9167 33.9626 89.0165 32.7163 91.6303 32.7163H97.183V32.7128Z" fill="white"/>
<path d="M108.597 32.7128V34.6517H104.308C102.173 34.6517 101.238 35.7194 101.238 38.2654C101.238 40.8114 102.159 41.8648 104.308 41.8648H108.597V43.8038H104.308C101.073 43.8038 99.2986 41.9791 99.2986 38.269C99.2986 34.5589 101.088 32.7163 104.308 32.7163H108.597V32.7128Z" fill="white"/>
<path d="M112.855 32.7128V37.2299H118.522V32.7128H120.475V43.8002H118.522V39.1688H112.855V43.8002H110.916V32.7128H112.855Z" fill="white"/>
<path d="M125.073 43.8001H123.135V34.9301C123.135 33.4839 123.956 32.5162 125.681 32.5162C127.223 32.5162 127.916 33.3054 128.373 34.5695L131.608 41.6504C131.74 41.9147 131.954 42.1111 132.315 42.1111C132.726 42.1111 132.972 41.8647 132.972 41.4862V32.7126H134.925V41.5683C134.925 43.0288 134.086 44 132.379 44C130.837 44 130.13 43.2109 129.669 41.9468L126.434 34.8658C126.288 34.5373 126.088 34.3909 125.745 34.3909C125.302 34.3909 125.07 34.6373 125.07 35.0301V43.8036L125.073 43.8001Z" fill="white"/>
<path d="M143.702 32.7128C146.923 32.7128 148.712 34.5517 148.712 38.2833C148.712 42.0148 146.937 43.8038 143.702 43.8038H142.191C138.956 43.8038 137.181 41.9969 137.181 38.2833C137.181 34.5696 138.97 32.7128 142.191 32.7128H143.702ZM142.188 34.6517C140.052 34.6517 139.117 35.7373 139.117 38.2833C139.117 40.8293 140.038 41.8648 142.188 41.8648H143.698C145.834 41.8648 146.755 40.815 146.755 38.2654C146.755 35.7158 145.834 34.6517 143.698 34.6517H142.188Z" fill="white"/>
<path d="M152.819 32.7128V39.958C152.819 41.0257 153.344 41.8648 155.087 41.8648H159.39V43.8038H154.969C152.027 43.8038 150.877 42.1933 150.877 39.9758V32.7163H152.816L152.819 32.7128Z" fill="white"/>
<path d="M166.995 32.7128C170.216 32.7128 172.005 34.5517 172.005 38.2833C172.005 42.0148 170.23 43.8038 166.995 43.8038H165.484C162.249 43.8038 160.474 41.9969 160.474 38.2833C160.474 34.5696 162.263 32.7128 165.484 32.7128H166.995ZM165.481 34.6517C163.345 34.6517 162.41 35.7373 162.41 38.2833C162.41 40.8293 163.331 41.8648 165.481 41.8648H166.991C169.127 41.8648 170.048 40.815 170.048 38.2654C170.048 35.7158 169.127 34.6517 166.991 34.6517H165.481Z" fill="white"/>
<path d="M183.454 32.7128V34.6517H178.886C176.751 34.6517 175.816 35.7194 175.816 38.2654C175.816 40.8114 176.737 41.8648 178.886 41.8648H180.725C181.811 41.8648 182.268 41.2078 182.268 40.3044C182.268 39.4009 181.807 38.8903 180.904 38.8903H178.44V37.1977H181.1C183.072 37.1977 184.039 38.4118 184.039 40.3365C184.039 42.2612 183.072 43.8038 180.59 43.8038H178.883C175.648 43.8038 173.873 41.9791 173.873 38.269C173.873 34.5589 175.662 32.7163 178.883 32.7163H183.45L183.454 32.7128Z" fill="white"/>
<path d="M188.195 32.7128V43.8002H186.256V32.7128H188.195Z" fill="white"/>
<path d="M199.73 32.7128V34.6517H194.177C193.01 34.6517 192.502 35.1945 192.502 36.0479C192.502 36.9513 193.077 37.362 194.195 37.362H199.648V39.1188H194.145C193.027 39.1188 192.452 39.5616 192.452 40.465C192.452 41.3685 192.995 41.8612 194.127 41.8612H199.744V43.8002H194.127C191.499 43.8002 190.431 42.504 190.431 40.7793C190.431 39.5152 191.006 38.6618 192.024 38.2333C190.988 37.8048 190.464 36.9513 190.464 35.7373C190.464 33.9626 191.563 32.7163 194.177 32.7163H199.73V32.7128Z" fill="white"/>
<path d="M210.814 32.7128V34.6517H205.129C204.126 34.6517 203.683 35.1945 203.683 35.9658C203.683 36.6407 204.029 37.2799 205.325 37.2799H207.921C210.942 37.2799 211.649 38.9546 211.649 40.5472C211.649 42.4219 210.646 43.8002 208.118 43.8002H201.94V41.8612H208.182C209.232 41.8612 209.71 41.2863 209.71 40.4829C209.71 39.7616 209.332 39.1046 207.968 39.1046H205.39C202.433 39.1046 201.744 37.4441 201.744 35.9015C201.744 34.0625 202.729 32.7163 205.193 32.7163H210.81L210.814 32.7128Z" fill="white"/>
<path d="M92.6836 0.3927V4.27063H84.1028C79.8285 4.27063 77.9574 6.40598 77.9574 11.5016C77.9574 16.5971 79.8 18.7004 84.1028 18.7004H92.6836V22.5783H84.1028C77.6289 22.5783 74.0759 18.9289 74.0759 11.5016C74.0759 4.07423 77.6575 0.3927 84.1028 0.3927H92.6836Z" fill="white"/>
<path d="M100.969 0.3927V14.8903C100.969 17.0256 102.023 18.7039 105.504 18.7039H114.117V22.5818H105.276C99.3912 22.5818 97.0916 19.361 97.0916 14.9224V0.3927H100.969Z" fill="white"/>
<path d="M119.964 22.5819H115.689L123.481 2.86023C124.302 0.789146 125.816 0 128.148 0C130.48 0 131.962 0.789146 132.751 2.86023L140.246 22.5819H135.939L129.201 4.73135C129.005 4.20644 128.644 3.97434 128.116 3.97434C127.587 3.97434 127.227 4.20287 126.998 4.73135L119.964 22.5819Z" fill="white"/>
<path d="M147.419 0.3927V9.43404H158.76V0.3927H162.673V22.5818H158.76V13.312H147.419V22.5818H143.541V0.3927H147.419Z" fill="white"/>
<path d="M170.233 22.5819H165.959L173.75 2.86023C174.572 0.789146 176.086 0 178.417 0C180.749 0 182.231 0.789146 183.02 2.86023L190.515 22.5819H186.209L179.471 4.73135C179.274 4.20644 178.914 3.97434 178.385 3.97434C177.857 3.97434 177.496 4.20287 177.268 4.73135L170.233 22.5819Z" fill="white"/>
<path d="M197.649 22.5819H193.771V4.83133C193.771 1.93896 195.414 0 198.867 0C201.956 0 203.338 1.5783 204.259 4.11002L210.736 18.2791C211.001 18.804 211.425 19.2004 212.15 19.2004C212.972 19.2004 213.464 18.7076 213.464 17.9506V0.396357H217.374V18.1148C217.374 21.0393 215.7 22.9783 212.279 22.9783C209.19 22.9783 207.776 21.4 206.855 18.8683L200.381 4.69921C200.084 4.04218 199.692 3.7458 198.999 3.7458C198.11 3.7458 197.653 4.23857 197.653 5.02772V22.5819H197.649Z" fill="white"/>
</svg>
