<svg width="218" height="44" viewBox="0 0 218 44" fill="none" xmlns="http://www.w3.org/2000/svg">
<path d="M50.1089 33.0596C50.1089 33.0596 50.1066 33.0596 50.1042 33.0619C46.649 35.2994 40.6512 39.1831 35.6941 42.3915C35.5405 42.4917 35.3845 42.5871 35.2261 42.6756C32.02 44.5126 28.0409 44.4405 24.893 42.4474C21.7986 40.4916 18.5156 38.4147 15.1954 36.3169C15.1954 36.3169 15.1931 36.3169 15.1908 36.3146C13.6983 35.3716 12.2012 34.424 10.7087 33.481H10.7064C9.17433 32.5101 7.64693 31.5438 6.14282 30.5939C4.92976 29.8278 3.73066 29.0688 2.55485 28.3261C-0.83056 26.184 -0.856169 21.2572 2.50596 19.0802C6.88324 16.2467 11.4258 13.306 15.9568 10.3746C20.6274 7.34778 25.2818 4.33491 29.7289 1.45709C32.6999 -0.466112 36.516 -0.487068 39.508 1.40354L46.2695 5.68069C37.8455 11.1336 26.3482 18.575 17.8497 24.0769C17.7519 24.1397 17.6565 24.2003 17.5657 24.2585C17.5494 24.2701 17.5354 24.2794 17.5214 24.2887L22.064 27.1619L25.6799 29.446C25.8825 29.5741 26.0827 29.7021 26.283 29.8302L29.1911 31.6672L32.3274 29.6369L38.4369 25.6811L50.1066 33.0596H50.1089Z" fill="url(#paint0_radial_516_19402)"/>
<path d="M64.1882 23.9465L60.088 26.6008L48.4183 19.2223L57.9413 13.0569L64.1533 16.9848C66.7005 18.596 66.7214 22.3074 64.1905 23.9442L64.1882 23.9465Z" fill="url(#paint1_radial_516_19402)"/>
<path d="M50.1047 33.0619C46.6495 35.2994 40.6517 39.1831 35.6946 42.3915C35.5409 42.4916 35.385 42.5871 35.2266 42.6756C32.0205 44.5126 28.0414 44.4405 24.8934 42.4474C21.7991 40.4916 18.5161 38.4147 15.1959 36.3169C15.1959 36.3169 15.1936 36.3169 15.1912 36.3146C13.6988 35.3716 12.2017 34.424 10.7092 33.481H10.7069C9.17481 32.5101 7.64742 31.5438 6.14331 30.5938L8.07118 24.2096L14.9072 22.5448C14.9072 22.5448 15.9549 23.22 17.5685 24.2585C19.6663 25.6042 22.7211 27.5647 25.6828 29.446C25.8853 29.574 26.0856 29.7021 26.2858 29.8302C27.2893 30.4658 28.2719 31.0875 29.1939 31.6672C38.2837 36.9269 49.837 33.1504 50.1047 33.0619Z" fill="url(#paint2_radial_516_19402)"/>
<path d="M46.2722 5.68069C37.8482 11.1336 26.3509 18.575 17.8524 24.0769C17.7383 24.149 17.6289 24.2212 17.5241 24.2887C10.7626 28.666 15.1958 36.3169 15.1958 36.3169C15.1958 36.3169 15.1935 36.3169 15.1911 36.3146C13.6987 35.3716 12.2015 34.424 10.7091 33.481H10.7067C7.93834 31.7278 5.1909 29.9932 2.55521 28.3261C-0.830193 26.184 -0.855803 21.2572 2.50632 19.0803C6.8836 16.2467 11.4262 13.306 15.9572 10.3746C20.6278 7.34778 25.2822 4.33491 29.7293 1.45709C32.7002 -0.466112 36.5164 -0.487068 39.5083 1.40354L46.2698 5.68069H46.2722Z" fill="url(#paint3_radial_516_19402)"/>
<path d="M86.5076 32.7128V34.6517H83.2724V43.8002H81.3192V34.6517H78.084V32.7128H86.5112H86.5076Z" fill="#7F7F7F"/>
<path d="M97.1832 32.7128V34.6517H91.6306C90.4629 34.6517 89.9559 35.1945 89.9559 36.0479C89.9559 36.9513 90.5308 37.362 91.6484 37.362H97.1011V39.1188H91.5984C90.4808 39.1188 89.9059 39.5616 89.9059 40.465C89.9059 41.3685 90.4486 41.8612 91.5806 41.8612H97.1975V43.8002H91.5806C88.9524 43.8002 87.8848 42.504 87.8848 40.7793C87.8848 39.5152 88.4597 38.6618 89.4774 38.2333C88.4418 37.8048 87.9169 36.9513 87.9169 35.7373C87.9169 33.9626 89.0167 32.7163 91.6306 32.7163H97.1832V32.7128Z" fill="#7F7F7F"/>
<path d="M108.597 32.7128V34.6517H104.309C102.173 34.6517 101.238 35.7194 101.238 38.2654C101.238 40.8114 102.159 41.8648 104.309 41.8648H108.597V43.8038H104.309C101.074 43.8038 99.2988 41.9791 99.2988 38.269C99.2988 34.5589 101.088 32.7163 104.309 32.7163H108.597V32.7128Z" fill="#7F7F7F"/>
<path d="M112.855 32.7128V37.2299H118.522V32.7128H120.475V43.8002H118.522V39.1688H112.855V43.8002H110.916V32.7128H112.855Z" fill="#7F7F7F"/>
<path d="M125.074 43.8001H123.135V34.9301C123.135 33.4839 123.956 32.5162 125.681 32.5162C127.223 32.5162 127.916 33.3054 128.373 34.5695L131.608 41.6504C131.74 41.9147 131.955 42.1111 132.315 42.1111C132.726 42.1111 132.972 41.8647 132.972 41.4862V32.7126H134.926V41.5683C134.926 43.0288 134.087 44 132.38 44C130.837 44 130.13 43.2109 129.669 41.9468L126.434 34.8658C126.288 34.5373 126.088 34.3909 125.745 34.3909C125.302 34.3909 125.07 34.6373 125.07 35.0301V43.8036L125.074 43.8001Z" fill="#7F7F7F"/>
<path d="M143.702 32.7128C146.923 32.7128 148.712 34.5517 148.712 38.2833C148.712 42.0148 146.937 43.8038 143.702 43.8038H142.192C138.956 43.8038 137.182 41.9969 137.182 38.2833C137.182 34.5696 138.971 32.7128 142.192 32.7128H143.702ZM142.188 34.6517C140.053 34.6517 139.117 35.7373 139.117 38.2833C139.117 40.8293 140.038 41.8648 142.188 41.8648H143.698C145.834 41.8648 146.755 40.815 146.755 38.2654C146.755 35.7158 145.834 34.6517 143.698 34.6517H142.188Z" fill="#7F7F7F"/>
<path d="M152.819 32.7128V39.958C152.819 41.0257 153.344 41.8648 155.087 41.8648H159.39V43.8038H154.969C152.027 43.8038 150.877 42.1933 150.877 39.9758V32.7163H152.816L152.819 32.7128Z" fill="#7F7F7F"/>
<path d="M166.995 32.7128C170.216 32.7128 172.005 34.5517 172.005 38.2833C172.005 42.0148 170.23 43.8038 166.995 43.8038H165.485C162.249 43.8038 160.475 41.9969 160.475 38.2833C160.475 34.5696 162.264 32.7128 165.485 32.7128H166.995ZM165.481 34.6517C163.346 34.6517 162.41 35.7373 162.41 38.2833C162.41 40.8293 163.331 41.8648 165.481 41.8648H166.991C169.127 41.8648 170.048 40.815 170.048 38.2654C170.048 35.7158 169.127 34.6517 166.991 34.6517H165.481Z" fill="#7F7F7F"/>
<path d="M183.454 32.7128V34.6517H178.887C176.751 34.6517 175.816 35.7194 175.816 38.2654C175.816 40.8114 176.737 41.8648 178.887 41.8648H180.726C181.811 41.8648 182.268 41.2078 182.268 40.3044C182.268 39.4009 181.808 38.8903 180.904 38.8903H178.44V37.1977H181.101C183.072 37.1977 184.039 38.4118 184.039 40.3365C184.039 42.2612 183.072 43.8038 180.59 43.8038H178.883C175.648 43.8038 173.873 41.9791 173.873 38.269C173.873 34.5589 175.662 32.7163 178.883 32.7163H183.45L183.454 32.7128Z" fill="#7F7F7F"/>
<path d="M188.195 32.7128V43.8002H186.256V32.7128H188.195Z" fill="#7F7F7F"/>
<path d="M199.73 32.7128V34.6517H194.177C193.01 34.6517 192.503 35.1945 192.503 36.0479C192.503 36.9513 193.078 37.362 194.195 37.362H199.648V39.1188H194.145C193.028 39.1188 192.453 39.5616 192.453 40.465C192.453 41.3685 192.995 41.8612 194.127 41.8612H199.744V43.8002H194.127C191.499 43.8002 190.432 42.504 190.432 40.7793C190.432 39.5152 191.007 38.6618 192.024 38.2333C190.989 37.8048 190.464 36.9513 190.464 35.7373C190.464 33.9626 191.564 32.7163 194.177 32.7163H199.73V32.7128Z" fill="#7F7F7F"/>
<path d="M210.814 32.7128V34.6517H205.129C204.126 34.6517 203.683 35.1945 203.683 35.9658C203.683 36.6407 204.029 37.2799 205.326 37.2799H207.922C210.943 37.2799 211.65 38.9546 211.65 40.5472C211.65 42.4219 210.646 43.8002 208.118 43.8002H201.941V41.8612H208.182C209.232 41.8612 209.711 41.2863 209.711 40.4829C209.711 39.7616 209.332 39.1046 207.968 39.1046H205.39C202.433 39.1046 201.744 37.4441 201.744 35.9015C201.744 34.0625 202.73 32.7163 205.194 32.7163H210.811L210.814 32.7128Z" fill="#7F7F7F"/>
<path d="M92.6838 0.3927V4.27063H84.1031C79.8288 4.27063 77.9577 6.40598 77.9577 11.5016C77.9577 16.5971 79.8002 18.7004 84.1031 18.7004H92.6838V22.5783H84.1031C77.6291 22.5783 74.0762 18.9289 74.0762 11.5016C74.0762 4.07423 77.6577 0.3927 84.1031 0.3927H92.6838Z" fill="#7F7F7F"/>
<path d="M100.97 0.3927V14.8903C100.97 17.0256 102.023 18.7039 105.505 18.7039H114.118V22.5818H105.276C99.3914 22.5818 97.0918 19.361 97.0918 14.9224V0.3927H100.97Z" fill="#7F7F7F"/>
<path d="M119.964 22.5819H115.689L123.481 2.86023C124.302 0.789146 125.816 0 128.148 0C130.48 0 131.962 0.789146 132.751 2.86023L140.246 22.5819H135.94L129.201 4.73135C129.005 4.20644 128.644 3.97434 128.116 3.97434C127.587 3.97434 127.227 4.20287 126.998 4.73135L119.964 22.5819Z" fill="#7F7F7F"/>
<path d="M147.419 0.3927V9.43404H158.76V0.3927H162.674V22.5818H158.76V13.312H147.419V22.5818H143.541V0.3927H147.419Z" fill="#7F7F7F"/>
<path d="M170.233 22.5819H165.959L173.751 2.86023C174.572 0.789146 176.086 0 178.418 0C180.749 0 182.231 0.789146 183.02 2.86023L190.516 22.5819H186.209L179.471 4.73135C179.275 4.20644 178.914 3.97434 178.386 3.97434C177.857 3.97434 177.496 4.20287 177.268 4.73135L170.233 22.5819Z" fill="#7F7F7F"/>
<path d="M197.649 22.5819H193.771V4.83133C193.771 1.93896 195.414 0 198.867 0C201.956 0 203.338 1.5783 204.259 4.11002L210.737 18.2791C211.001 18.804 211.426 19.2004 212.151 19.2004C212.972 19.2004 213.465 18.7076 213.465 17.9506V0.396357H217.375V18.1148C217.375 21.0393 215.7 22.9783 212.279 22.9783C209.19 22.9783 207.776 21.4 206.855 18.8683L200.381 4.69921C200.085 4.04218 199.692 3.7458 198.999 3.7458C198.11 3.7458 197.653 4.23857 197.653 5.02772V22.5819H197.649Z" fill="#7F7F7F"/>
<defs>
<radialGradient id="paint0_radial_516_19402" cx="0" cy="0" r="1" gradientUnits="userSpaceOnUse" gradientTransform="translate(49.1031 18.731) scale(30.9669 30.9668)">
<stop stop-color="#048DAE"/>
<stop offset="0.6" stop-color="#175C9B"/>
<stop offset="1" stop-color="#234090"/>
</radialGradient>
<radialGradient id="paint1_radial_516_19402" cx="0" cy="0" r="1" gradientUnits="userSpaceOnUse" gradientTransform="translate(49.1029 18.731) scale(30.9669 30.9668)">
<stop stop-color="#048DAE"/>
<stop offset="0.46" stop-color="#1F71AA"/>
<stop offset="1" stop-color="#3C56A6"/>
</radialGradient>
<radialGradient id="paint2_radial_516_19402" cx="0" cy="0" r="1" gradientUnits="userSpaceOnUse" gradientTransform="translate(43.3968 37.041) scale(37.0765 37.0764)">
<stop stop-color="#048DAE"/>
<stop offset="0.46" stop-color="#1F71AA"/>
<stop offset="1" stop-color="#3C56A6"/>
</radialGradient>
<radialGradient id="paint3_radial_516_19402" cx="0" cy="0" r="1" gradientUnits="userSpaceOnUse" gradientTransform="translate(9.39356 28.7196) scale(53.8103 53.8101)">
<stop stop-color="#048DAE"/>
<stop offset="0.46" stop-color="#1F71AA"/>
<stop offset="1" stop-color="#3C56A6"/>
</radialGradient>
</defs>
</svg>
